%FSLAX35Y35*%
%MOIN*%
G04 2=Kupferunten/CopperbottomL2(X.Bot)*
%ADD10C,0.00591*%
%ADD11C,0.00154*%
%ADD12C,0.00336*%
%ADD13C,0.00409*%
%ADD14C,0.00472*%
%ADD15C,0.00512*%
%ADD16C,0.00630*%
%ADD17C,0.00650*%
%ADD18C,0.00709*%
%ADD19C,0.00768*%
%ADD20C,0.00800*%
%ADD21C,0.01024*%
%ADD22C,0.01181*%
%ADD23C,0.01575*%
%ADD24C,0.02000*%
%ADD25C,0.02362*%
%ADD26C,0.04000*%
%ADD27C,0.07150*%
%AMR_28*21,1,0.00787,0.00787,0,0,0.000*%
%ADD28R_28*%
%AMR_29*21,1,0.05000,0.05000,0,0,270.000*%
%ADD29R_29*%
%AMR_30*21,1,0.07087,0.07087,0,0,0.000*%
%ADD30R_30*%
%AMR_31*21,1,0.07087,0.07087,0,0,90.000*%
%ADD31R_31*%
%AMOCT_32*4,1,8,0.025000,0.012500,0.012500,0.025000,-0.012500,0.025000,-0.025000,0.012500,-0.025000,-0.012500,-0.012500,-0.025000,0.012500,-0.025000,0.025000,-0.012500,0.025000,0.012500,0.000*%
%ADD32OCT_32*%
%AMOCT_33*4,1,8,0.029528,0.020669,0.014764,0.035433,-0.014764,0.035433,-0.029528,0.020669,-0.029528,-0.020669,-0.014764,-0.035433,0.014764,-0.035433,0.029528,-0.020669,0.029528,0.020669,90.000*%
%ADD33OCT_33*%
%AMOCT_34*4,1,8,0.031496,0.015748,0.015748,0.031496,-0.015748,0.031496,-0.031496,0.015748,-0.031496,-0.015748,-0.015748,-0.031496,0.015748,-0.031496,0.031496,-0.015748,0.031496,0.015748,0.000*%
%ADD34OCT_34*%
%AMOCT_35*4,1,8,0.031496,0.015748,0.015748,0.031496,-0.015748,0.031496,-0.031496,0.015748,-0.031496,-0.015748,-0.015748,-0.031496,0.015748,-0.031496,0.031496,-0.015748,0.031496,0.015748,90.000*%
%ADD35OCT_35*%
%AMOCT_36*4,1,8,0.031496,0.015748,0.015748,0.031496,-0.015748,0.031496,-0.031496,0.015748,-0.031496,-0.015748,-0.015748,-0.031496,0.015748,-0.031496,0.031496,-0.015748,0.031496,0.015748,270.000*%
%ADD36OCT_36*%
%AMOCT_37*4,1,8,0.031496,0.034252,0.015748,0.050000,-0.015748,0.050000,-0.031496,0.034252,-0.031496,-0.034252,-0.015748,-0.050000,0.015748,-0.050000,0.031496,-0.034252,0.031496,0.034252,0.000*%
%ADD37OCT_37*%
%AMOCT_38*4,1,8,0.035433,0.017717,0.017717,0.035433,-0.017717,0.035433,-0.035433,0.017717,-0.035433,-0.017717,-0.017717,-0.035433,0.017717,-0.035433,0.035433,-0.017717,0.035433,0.017717,0.000*%
%ADD38OCT_38*%
%AMOCT_39*4,1,8,0.035433,0.017717,0.017717,0.035433,-0.017717,0.035433,-0.035433,0.017717,-0.035433,-0.017717,-0.017717,-0.035433,0.017717,-0.035433,0.035433,-0.017717,0.035433,0.017717,90.000*%
%ADD39OCT_39*%
%AMOCT_40*4,1,8,0.035433,0.017717,0.017717,0.035433,-0.017717,0.035433,-0.035433,0.017717,-0.035433,-0.017717,-0.017717,-0.035433,0.017717,-0.035433,0.035433,-0.017717,0.035433,0.017717,270.000*%
%ADD40OCT_40*%
%AMOCT_41*4,1,8,0.035433,0.032283,0.017717,0.050000,-0.017717,0.050000,-0.035433,0.032283,-0.035433,-0.032283,-0.017717,-0.050000,0.017717,-0.050000,0.035433,-0.032283,0.035433,0.032283,0.000*%
%ADD41OCT_41*%
%AMOCT_42*4,1,8,0.037402,0.015748,0.021654,0.031496,-0.021654,0.031496,-0.037402,0.015748,-0.037402,-0.015748,-0.021654,-0.031496,0.021654,-0.031496,0.037402,-0.015748,0.037402,0.015748,0.000*%
%ADD42OCT_42*%
%AMOCT_43*4,1,8,0.037500,0.015748,0.021752,0.031496,-0.021752,0.031496,-0.037500,0.015748,-0.037500,-0.015748,-0.021752,-0.031496,0.021752,-0.031496,0.037500,-0.015748,0.037500,0.015748,0.000*%
%ADD43OCT_43*%
%AMOCT_44*4,1,8,0.047244,0.023622,0.023622,0.047244,-0.023622,0.047244,-0.047244,0.023622,-0.047244,-0.023622,-0.023622,-0.047244,0.023622,-0.047244,0.047244,-0.023622,0.047244,0.023622,0.000*%
%ADD44OCT_44*%
%AMOCT_45*4,1,8,0.050000,0.012500,0.037500,0.025000,-0.037500,0.025000,-0.050000,0.012500,-0.050000,-0.012500,-0.037500,-0.025000,0.037500,-0.025000,0.050000,-0.012500,0.050000,0.012500,90.000*%
%ADD45OCT_45*%
%AMOCT_46*4,1,8,0.050000,0.015748,0.034252,0.031496,-0.034252,0.031496,-0.050000,0.015748,-0.050000,-0.015748,-0.034252,-0.031496,0.034252,-0.031496,0.050000,-0.015748,0.050000,0.015748,90.000*%
%ADD46OCT_46*%
%AMOCT_47*4,1,8,0.050000,0.017717,0.032283,0.035433,-0.032283,0.035433,-0.050000,0.017717,-0.050000,-0.017717,-0.032283,-0.035433,0.032283,-0.035433,0.050000,-0.017717,0.050000,0.017717,90.000*%
%ADD47OCT_47*%
%AMOCT_48*4,1,8,0.295276,0.147638,0.147638,0.295276,-0.147638,0.295276,-0.295276,0.147638,-0.295276,-0.147638,-0.147638,-0.295276,0.147638,-0.295276,0.295276,-0.147638,0.295276,0.147638,0.000*%
%ADD48OCT_48*%
%AMRR_49*21,1,0.06299,0.05039,0,0,0.000*21,1,0.05039,0.06299,0,0,0.000*1,1,0.01260,0.02520,0.02520*1,1,0.01260,-0.02520,-0.02520*1,1,0.01260,0.02520,-0.02520*1,1,0.01260,-0.02520,0.02520*%
%ADD49RR_49*%
%AMRR_50*21,1,0.06299,0.05039,0,0,90.000*21,1,0.05039,0.06299,0,0,90.000*1,1,0.01260,-0.02520,0.02520*1,1,0.01260,0.02520,-0.02520*1,1,0.01260,0.02520,0.02520*1,1,0.01260,-0.02520,-0.02520*%
%ADD50RR_50*%
%AMRR_51*21,1,0.06299,0.05039,0,0,270.000*21,1,0.05039,0.06299,0,0,270.000*1,1,0.01260,0.02520,-0.02520*1,1,0.01260,-0.02520,0.02520*1,1,0.01260,-0.02520,-0.02520*1,1,0.01260,0.02520,0.02520*%
%ADD51RR_51*%
G54D22*
X175590Y82283D02*
X175590Y96059D01*
X257874Y155433D02*
X254251Y155433D01*
X248031Y149212D02*
X254251Y155433D01*
X248031Y149212D02*
X248031Y118425D01*
X100511Y157500D02*
X99232Y157500D01*
X90914Y149182D02*
X90914Y103064D01*
X248031Y118425D02*
X258267Y108188D01*
X105118Y162106D02*
X105118Y224015D01*
X13385Y82283D02*
X41023Y54645D01*
X14960Y102755D02*
X19685Y102755D01*
X175590Y96059D02*
X175590Y96059D01*
X13385Y101181D02*
X14960Y102755D01*
X41023Y54645D02*
X41023Y6692D01*
X179881Y9448D02*
X179488Y9448D01*
X179881Y9448D02*
X179881Y9055D01*
X175590Y13346D02*
X179488Y9448D01*
X99330Y158287D02*
X101299Y158287D01*
X105118Y162106D01*
X99330Y158287D02*
X99330Y157598D01*
X99232Y157500D01*
X99330Y157598D02*
X90914Y149182D01*
X13385Y82283D02*
X13385Y101181D01*
X152755Y59448D02*
X175590Y82283D01*
X175590Y25196D02*
X175590Y13346D01*
X169291Y31496D02*
X175590Y25196D01*
X160629Y31496D02*
X169291Y31496D01*
X152755Y39370D02*
X152755Y44881D01*
X152755Y39370D02*
X160629Y31496D01*
X90914Y103064D02*
X90914Y45305D01*
X91338Y44881D01*
X152755Y44881D02*
X152755Y59448D01*
X152362Y44881D02*
X152755Y44881D01*
X233464Y150787D02*
X248425Y165748D01*
X233464Y150787D02*
X233464Y127559D01*
X100511Y167500D02*
X84705Y151693D01*
X84705Y109270D01*
X100511Y167500D02*
X91338Y176673D01*
X91338Y218503D01*
X31023Y52440D02*
X31023Y6692D01*
X7874Y100787D02*
X18110Y111023D01*
X248425Y165748D02*
X257559Y165748D01*
X257874Y165433D01*
X165551Y76771D02*
X165551Y105708D01*
X233464Y127559D02*
X240551Y120472D01*
X7874Y75590D02*
X7874Y100787D01*
X31023Y52440D02*
X7874Y75590D01*
X169881Y9055D02*
X169488Y9055D01*
X165551Y12992D02*
X169488Y9055D01*
X240669Y121043D02*
X240551Y120472D01*
X144094Y55314D02*
X144094Y51968D01*
X165551Y23818D02*
X165551Y12992D01*
X161417Y27952D02*
X165551Y23818D01*
X161417Y27952D02*
X151968Y27952D01*
X144094Y55314D02*
X165551Y76771D01*
X144094Y35826D02*
X151968Y27952D01*
X84645Y109211D02*
X84645Y51968D01*
X84645Y109211D02*
X84705Y109270D01*
X144094Y51968D02*
X144094Y35826D01*
X243818Y298464D02*
X98070Y298464D01*
X61023Y324881D02*
X61023Y287007D01*
X61023Y324881D02*
X60846Y325059D01*
X82677Y283070D02*
X64960Y283070D01*
X98070Y298464D02*
X82677Y283070D01*
X61023Y287007D02*
X64960Y283070D01*
X128228Y288464D02*
X243818Y288464D01*
X128228Y288464D02*
X120846Y281082D01*
X120846Y235059D01*
X248818Y283464D02*
X253818Y278464D01*
X137795Y283464D02*
X248818Y283464D01*
X137795Y283464D02*
X131102Y276771D01*
X131102Y235314D01*
X130846Y235059D01*
X197755Y278464D02*
X243818Y278464D01*
X197755Y278464D02*
X190846Y271555D01*
X190846Y235059D01*
X248503Y313779D02*
X253818Y308464D01*
X248503Y313779D02*
X124803Y313779D01*
X120472Y318110D01*
X120472Y324685D01*
X120846Y325059D01*
X243818Y308464D02*
X115944Y308464D01*
X110629Y313779D01*
X110629Y324842D01*
X110846Y325059D01*
X107086Y303543D02*
X248740Y303543D01*
X107086Y303543D02*
X101574Y309055D01*
X101574Y324330D01*
X100846Y325059D01*
X248740Y303543D02*
X253818Y298464D01*
X243779Y318503D02*
X137401Y318503D01*
X130846Y325059D01*
X243779Y318503D02*
X243818Y318464D01*
X248582Y293700D02*
X253818Y288464D01*
X118503Y293700D02*
X248582Y293700D01*
X118503Y293700D02*
X110846Y286043D01*
X110846Y235059D02*
X110846Y286043D01*
X9330Y158287D02*
X16141Y165098D01*
X16141Y226771D01*
X110846Y235059D02*
X110846Y234035D01*
X114173Y230708D02*
X110846Y234035D01*
X114173Y218503D02*
X114173Y230708D01*
X107874Y212204D02*
X114173Y218503D01*
X107874Y140157D02*
X107874Y212204D01*
X107874Y140157D02*
X123228Y124803D01*
X136909Y124803D01*
X150669Y111043D01*
X220078Y14960D02*
X220078Y9251D01*
X219881Y9055D01*
X220078Y14960D02*
X217322Y17716D01*
X217322Y37007D01*
X210236Y8661D02*
X209881Y9055D01*
X212204Y48031D02*
X212204Y17716D01*
X210236Y15748D02*
X210236Y8661D01*
X209881Y9055D01*
X212204Y17716D02*
X210236Y15748D01*
G54D24*
X160236Y9094D02*
X159881Y9055D01*
X201968Y184488D02*
X201968Y44094D01*
X258267Y98188D02*
X250787Y98188D01*
X240669Y81043D02*
X246850Y81043D01*
X185275Y201181D02*
X191968Y207874D01*
X221102Y207874D01*
X228188Y200787D01*
X186850Y221062D02*
X200846Y235059D01*
X185826Y218503D02*
X145669Y218503D01*
X141338Y222834D01*
X141338Y234566D01*
X140846Y235059D01*
X70866Y325039D02*
X70846Y325059D01*
X248818Y96220D02*
X248818Y83011D01*
X250787Y98188D02*
X248818Y96220D01*
X248818Y83011D02*
X246850Y81043D01*
X190669Y46043D02*
X190669Y80039D01*
X191338Y80708D01*
X49606Y93562D02*
X49606Y127559D01*
X49606Y93562D02*
X49330Y93287D01*
X106299Y127500D02*
X100118Y127500D01*
X99330Y128287D01*
X201968Y184488D02*
X185275Y201181D01*
X109055Y124744D02*
X109055Y33464D01*
X109055Y124744D02*
X106299Y127500D01*
X201968Y44094D02*
X190551Y32677D01*
X109055Y7480D02*
X109055Y21653D01*
X109055Y7480D02*
X113779Y2755D01*
X160236Y2755D01*
X160236Y7480D02*
X160236Y9094D01*
X16141Y280445D02*
X22729Y273858D01*
X27952Y273858D01*
X186614Y220826D02*
X186614Y201023D01*
X186614Y220826D02*
X186850Y221062D01*
X186614Y201023D02*
X186850Y200787D01*
X228188Y200787D02*
X243425Y216023D01*
X243425Y228622D01*
X243425Y238622D02*
X243425Y248622D01*
X243425Y258622D02*
X243425Y268622D01*
X243425Y248622D02*
X243425Y258622D01*
X243425Y228622D02*
X243425Y238622D01*
X109055Y33464D02*
X109055Y21653D01*
X267716Y2755D02*
X270078Y5118D01*
X270078Y23622D01*
X265433Y28267D01*
X261417Y28267D01*
X251574Y28267D01*
X241732Y28267D01*
X231889Y28267D01*
X159881Y9055D02*
X159842Y9015D01*
X160236Y9094D01*
X160236Y2755D01*
X267716Y2755D01*
X206850Y200236D02*
X206850Y71259D01*
X99606Y69291D02*
X99606Y118110D01*
X99606Y69291D02*
X99606Y27165D01*
X160669Y46043D02*
X160669Y59881D01*
X172047Y71259D02*
X160669Y59881D01*
X206850Y200236D02*
X206299Y200787D01*
X206850Y71259D02*
X206850Y26771D01*
X16141Y288845D02*
X21154Y293858D01*
X27952Y293858D01*
X248188Y200787D02*
X253425Y206023D01*
X253425Y228622D01*
X253425Y238622D01*
X253425Y248622D01*
X99606Y118110D02*
X99212Y118503D01*
X261023Y57874D02*
X268897Y65748D01*
X268897Y77559D01*
X258267Y88188D01*
X260629Y88188D01*
X268897Y96456D01*
X268897Y124409D01*
X257874Y135433D01*
X253149Y259055D02*
X268897Y243307D01*
X268897Y146456D01*
X257874Y135433D01*
X259842Y274803D02*
X259842Y321259D01*
X249606Y331496D01*
X207283Y331496D01*
X200846Y325059D01*
X150669Y71043D02*
X121141Y71043D01*
X61023Y118110D02*
X61023Y6692D01*
X117322Y9842D02*
X117322Y38188D01*
X117322Y9842D02*
X117716Y9448D01*
X117322Y67224D02*
X121141Y71043D01*
X117322Y38582D02*
X117322Y67224D01*
X117322Y38188D02*
X116929Y38582D01*
X259842Y274803D02*
X253661Y268622D01*
X253425Y268622D01*
X253425Y258622D01*
G54D27*
X130846Y235059D03*
X140846Y235059D03*
X150846Y235059D03*
X160846Y235059D03*
X170846Y235059D03*
X180846Y235059D03*
X190846Y235059D03*
X200846Y235059D03*
X200846Y325059D03*
X190846Y325059D03*
X180846Y325059D03*
X170846Y325059D03*
X160846Y325059D03*
X150846Y325059D03*
X140846Y325059D03*
X130846Y325059D03*
X120846Y325059D03*
X110846Y325059D03*
X100846Y325059D03*
X90846Y325059D03*
X80846Y325059D03*
X70846Y325059D03*
X60846Y325059D03*
X120846Y235059D03*
X110846Y235059D03*
X100846Y235059D03*
X90846Y235059D03*
X80846Y235059D03*
X70846Y235059D03*
X60846Y235059D03*
X50846Y235059D03*
X40846Y235059D03*
X30846Y235059D03*
X20846Y235059D03*
X20846Y325059D03*
X30846Y325059D03*
X40846Y325059D03*
X50846Y325059D03*
G54D29*
X16141Y280445D03*
X16141Y288845D03*
G54D30*
X149881Y9055D03*
G54D31*
X253425Y228622D03*
G54D32*
X201574Y151574D03*
X109055Y33464D03*
X190551Y32677D03*
X49606Y127559D03*
X191338Y80708D03*
X109055Y21653D03*
X207086Y27165D03*
X99606Y69291D03*
X99606Y27165D03*
X172047Y71259D03*
X206850Y71259D03*
X61023Y118110D03*
X117716Y9448D03*
X116929Y38582D03*
X90914Y103064D03*
X175590Y96059D03*
X105118Y224015D03*
X19685Y102755D03*
X91338Y44881D03*
X152362Y44881D03*
X165413Y106121D03*
X84705Y109270D03*
X91338Y218503D03*
X18110Y111023D03*
X84645Y51968D03*
X144094Y51968D03*
X16141Y226771D03*
X217322Y37007D03*
X212204Y48031D03*
G54D33*
X243425Y278622D03*
X243425Y288622D03*
X243425Y298622D03*
X243425Y308622D03*
X243425Y318622D03*
G54D34*
X21023Y6692D03*
X31023Y6692D03*
X41023Y6692D03*
X51023Y6692D03*
X61023Y6692D03*
G54D35*
X257874Y145433D03*
X257874Y155433D03*
X257874Y165433D03*
X258267Y98188D03*
X258267Y108188D03*
X258267Y118188D03*
G54D36*
X251574Y48267D03*
X251574Y38267D03*
X251574Y28267D03*
X261417Y48267D03*
X261417Y38267D03*
X261417Y28267D03*
X241732Y48267D03*
X241732Y38267D03*
X241732Y28267D03*
X231889Y48267D03*
X231889Y38267D03*
X231889Y28267D03*
X130708Y19133D03*
X130708Y9133D03*
G54D37*
X160669Y46043D03*
G54D38*
X159881Y9055D03*
X169881Y9055D03*
X179881Y9055D03*
X189881Y9055D03*
X199881Y9055D03*
X209881Y9055D03*
X219881Y9055D03*
X229881Y9055D03*
X239881Y9055D03*
G54D39*
X243425Y228622D03*
X253425Y238622D03*
X243425Y238622D03*
X253425Y248622D03*
X243425Y248622D03*
X253425Y258622D03*
X243425Y258622D03*
X253425Y268622D03*
X243425Y268622D03*
X253425Y278622D03*
X253425Y288622D03*
X253425Y298622D03*
X253425Y308622D03*
X253425Y318622D03*
G54D40*
X27952Y293858D03*
X27952Y273858D03*
G54D41*
X19330Y93287D03*
G54D42*
X150669Y111043D03*
X150669Y101043D03*
X150669Y91043D03*
G54D43*
X150669Y141043D03*
X150669Y131043D03*
X150669Y121043D03*
X150669Y81043D03*
X150669Y71043D03*
X240669Y141043D03*
X240669Y131043D03*
X240669Y121043D03*
X240669Y111043D03*
X240669Y101043D03*
X240669Y91043D03*
X240669Y81043D03*
X240669Y71043D03*
X9330Y188287D03*
X9330Y178287D03*
X9330Y168287D03*
X9330Y158287D03*
X9330Y148287D03*
X9330Y138287D03*
X9330Y128287D03*
X9330Y118287D03*
X99330Y188287D03*
X99330Y178287D03*
X99330Y168287D03*
X99330Y158287D03*
X99330Y148287D03*
X99330Y138287D03*
X99330Y128287D03*
X99330Y118287D03*
G54D44*
X186850Y200787D03*
X206850Y200787D03*
X228188Y200787D03*
X248188Y200787D03*
G54D46*
X170669Y46043D03*
X180669Y46043D03*
X190669Y46043D03*
G54D47*
X29330Y93287D03*
X39330Y93287D03*
X49330Y93287D03*
G54D48*
X142712Y178045D03*
G54D49*
X11023Y6692D03*
G54D50*
X257874Y135433D03*
X258267Y88188D03*
G54D51*
X251574Y58267D03*
X261417Y58267D03*
X241732Y58267D03*
X231889Y58267D03*
X130708Y29133D03*
M02*
