%FSLAX35Y35*%
%MOIN*%
G04 16=Kupferoben/CoppertopL1(X.Top)*
%ADD10C,0.00591*%
%ADD11C,0.00154*%
%ADD12C,0.00336*%
%ADD13C,0.00409*%
%ADD14C,0.00472*%
%ADD15C,0.00512*%
%ADD16C,0.00630*%
%ADD17C,0.00650*%
%ADD18C,0.00709*%
%ADD19C,0.00768*%
%ADD20C,0.00800*%
%ADD21C,0.01024*%
%ADD22C,0.01181*%
%ADD23C,0.01575*%
%ADD24C,0.02000*%
%ADD25C,0.02362*%
%ADD26C,0.04000*%
%ADD27C,0.07150*%
%AMR_28*21,1,0.00787,0.00787,0,0,0.000*%
%ADD28R_28*%
%AMR_29*21,1,0.05000,0.05000,0,0,270.000*%
%ADD29R_29*%
%AMR_30*21,1,0.07087,0.07087,0,0,0.000*%
%ADD30R_30*%
%AMR_31*21,1,0.07087,0.07087,0,0,90.000*%
%ADD31R_31*%
%AMOCT_32*4,1,8,0.025000,0.012500,0.012500,0.025000,-0.012500,0.025000,-0.025000,0.012500,-0.025000,-0.012500,-0.012500,-0.025000,0.012500,-0.025000,0.025000,-0.012500,0.025000,0.012500,0.000*%
%ADD32OCT_32*%
%AMOCT_33*4,1,8,0.029528,0.020669,0.014764,0.035433,-0.014764,0.035433,-0.029528,0.020669,-0.029528,-0.020669,-0.014764,-0.035433,0.014764,-0.035433,0.029528,-0.020669,0.029528,0.020669,90.000*%
%ADD33OCT_33*%
%AMOCT_34*4,1,8,0.031496,0.015748,0.015748,0.031496,-0.015748,0.031496,-0.031496,0.015748,-0.031496,-0.015748,-0.015748,-0.031496,0.015748,-0.031496,0.031496,-0.015748,0.031496,0.015748,0.000*%
%ADD34OCT_34*%
%AMOCT_35*4,1,8,0.031496,0.015748,0.015748,0.031496,-0.015748,0.031496,-0.031496,0.015748,-0.031496,-0.015748,-0.015748,-0.031496,0.015748,-0.031496,0.031496,-0.015748,0.031496,0.015748,90.000*%
%ADD35OCT_35*%
%AMOCT_36*4,1,8,0.031496,0.015748,0.015748,0.031496,-0.015748,0.031496,-0.031496,0.015748,-0.031496,-0.015748,-0.015748,-0.031496,0.015748,-0.031496,0.031496,-0.015748,0.031496,0.015748,270.000*%
%ADD36OCT_36*%
%AMOCT_37*4,1,8,0.031496,0.034252,0.015748,0.050000,-0.015748,0.050000,-0.031496,0.034252,-0.031496,-0.034252,-0.015748,-0.050000,0.015748,-0.050000,0.031496,-0.034252,0.031496,0.034252,0.000*%
%ADD37OCT_37*%
%AMOCT_38*4,1,8,0.035433,0.017717,0.017717,0.035433,-0.017717,0.035433,-0.035433,0.017717,-0.035433,-0.017717,-0.017717,-0.035433,0.017717,-0.035433,0.035433,-0.017717,0.035433,0.017717,0.000*%
%ADD38OCT_38*%
%AMOCT_39*4,1,8,0.035433,0.017717,0.017717,0.035433,-0.017717,0.035433,-0.035433,0.017717,-0.035433,-0.017717,-0.017717,-0.035433,0.017717,-0.035433,0.035433,-0.017717,0.035433,0.017717,90.000*%
%ADD39OCT_39*%
%AMOCT_40*4,1,8,0.035433,0.017717,0.017717,0.035433,-0.017717,0.035433,-0.035433,0.017717,-0.035433,-0.017717,-0.017717,-0.035433,0.017717,-0.035433,0.035433,-0.017717,0.035433,0.017717,270.000*%
%ADD40OCT_40*%
%AMOCT_41*4,1,8,0.035433,0.032283,0.017717,0.050000,-0.017717,0.050000,-0.035433,0.032283,-0.035433,-0.032283,-0.017717,-0.050000,0.017717,-0.050000,0.035433,-0.032283,0.035433,0.032283,0.000*%
%ADD41OCT_41*%
%AMOCT_42*4,1,8,0.037402,0.015748,0.021654,0.031496,-0.021654,0.031496,-0.037402,0.015748,-0.037402,-0.015748,-0.021654,-0.031496,0.021654,-0.031496,0.037402,-0.015748,0.037402,0.015748,0.000*%
%ADD42OCT_42*%
%AMOCT_43*4,1,8,0.037500,0.015748,0.021752,0.031496,-0.021752,0.031496,-0.037500,0.015748,-0.037500,-0.015748,-0.021752,-0.031496,0.021752,-0.031496,0.037500,-0.015748,0.037500,0.015748,0.000*%
%ADD43OCT_43*%
%AMOCT_44*4,1,8,0.047244,0.023622,0.023622,0.047244,-0.023622,0.047244,-0.047244,0.023622,-0.047244,-0.023622,-0.023622,-0.047244,0.023622,-0.047244,0.047244,-0.023622,0.047244,0.023622,0.000*%
%ADD44OCT_44*%
%AMOCT_45*4,1,8,0.050000,0.012500,0.037500,0.025000,-0.037500,0.025000,-0.050000,0.012500,-0.050000,-0.012500,-0.037500,-0.025000,0.037500,-0.025000,0.050000,-0.012500,0.050000,0.012500,90.000*%
%ADD45OCT_45*%
%AMOCT_46*4,1,8,0.050000,0.015748,0.034252,0.031496,-0.034252,0.031496,-0.050000,0.015748,-0.050000,-0.015748,-0.034252,-0.031496,0.034252,-0.031496,0.050000,-0.015748,0.050000,0.015748,90.000*%
%ADD46OCT_46*%
%AMOCT_47*4,1,8,0.050000,0.017717,0.032283,0.035433,-0.032283,0.035433,-0.050000,0.017717,-0.050000,-0.017717,-0.032283,-0.035433,0.032283,-0.035433,0.050000,-0.017717,0.050000,0.017717,90.000*%
%ADD47OCT_47*%
%AMOCT_48*4,1,8,0.295276,0.147638,0.147638,0.295276,-0.147638,0.295276,-0.295276,0.147638,-0.295276,-0.147638,-0.147638,-0.295276,0.147638,-0.295276,0.295276,-0.147638,0.295276,0.147638,0.000*%
%ADD48OCT_48*%
%AMRR_49*21,1,0.06299,0.05039,0,0,0.000*21,1,0.05039,0.06299,0,0,0.000*1,1,0.01260,0.02520,0.02520*1,1,0.01260,-0.02520,-0.02520*1,1,0.01260,0.02520,-0.02520*1,1,0.01260,-0.02520,0.02520*%
%ADD49RR_49*%
%AMRR_50*21,1,0.06299,0.05039,0,0,90.000*21,1,0.05039,0.06299,0,0,90.000*1,1,0.01260,-0.02520,0.02520*1,1,0.01260,0.02520,-0.02520*1,1,0.01260,0.02520,0.02520*1,1,0.01260,-0.02520,-0.02520*%
%ADD50RR_50*%
%AMRR_51*21,1,0.06299,0.05039,0,0,270.000*21,1,0.05039,0.06299,0,0,270.000*1,1,0.01260,0.02520,-0.02520*1,1,0.01260,-0.02520,0.02520*1,1,0.01260,-0.02520,-0.02520*1,1,0.01260,0.02520,0.02520*%
%ADD51RR_51*%
G54D22*
X257007Y109448D02*
X258267Y108188D01*
X179137Y99606D02*
X229527Y99606D01*
X250078Y108188D02*
X258267Y108188D01*
X175590Y96059D02*
X179137Y99606D01*
X105118Y224015D02*
X147244Y224015D01*
X150787Y227559D01*
X150787Y235000D01*
X150846Y235059D01*
X90606Y102755D02*
X19685Y102755D01*
X229527Y99606D02*
X240551Y110629D01*
X247637Y110629D01*
X250078Y108188D01*
X90606Y102755D02*
X90914Y103064D01*
X240669Y111043D02*
X240551Y110629D01*
X91338Y44881D02*
X152362Y44881D01*
X105118Y224015D02*
X20866Y224015D01*
X18503Y221653D01*
X14173Y221653D01*
X10236Y225590D01*
X10236Y244488D01*
X24803Y259055D01*
X88582Y259055D01*
X91417Y256220D01*
X91417Y247244D01*
X257559Y118897D02*
X258267Y118188D01*
X164960Y105905D02*
X225984Y105905D01*
X240551Y120472D01*
X256594Y119862D02*
X257559Y118897D01*
X91338Y218503D02*
X175984Y218503D01*
X181102Y223622D01*
X181102Y234803D01*
X180846Y235059D01*
X256417Y119685D02*
X240551Y119685D01*
X84705Y109270D02*
X22225Y109270D01*
X20472Y111023D01*
X18110Y111023D01*
X240669Y121043D02*
X240551Y120472D01*
X257559Y118897D02*
X258267Y118188D01*
X256417Y119685D02*
X256594Y119862D01*
X84645Y51968D02*
X144094Y51968D01*
X91338Y218503D02*
X88976Y220866D01*
X21653Y220866D01*
X19685Y218897D01*
X12992Y218897D01*
X7480Y224409D01*
X7480Y246062D01*
X23622Y262204D01*
X98425Y262204D01*
X101417Y259212D01*
X101417Y247244D01*
X120846Y249429D02*
X120846Y235059D01*
X120846Y249429D02*
X121417Y247244D01*
X130846Y249429D02*
X130846Y235059D01*
X130846Y249429D02*
X131417Y247244D01*
X117716Y319055D02*
X111417Y312755D01*
X117716Y321929D02*
X120846Y325059D01*
X117716Y319055D02*
X117716Y321929D01*
X105118Y318425D02*
X103385Y318425D01*
X107086Y321299D02*
X110846Y325059D01*
X107086Y321299D02*
X107086Y320393D01*
X101417Y312755D02*
X101417Y316456D01*
X105118Y318425D02*
X107086Y320393D01*
X103385Y318425D02*
X101417Y316456D01*
X91417Y312755D02*
X97244Y318582D01*
X97244Y321456D02*
X100846Y325059D01*
X97244Y318582D02*
X97244Y321456D01*
X253818Y318464D02*
X240393Y331889D01*
X142519Y331889D02*
X240393Y331889D01*
X140846Y330216D02*
X140846Y325059D01*
X142519Y331889D02*
X140846Y330216D01*
X131417Y312755D02*
X138346Y312755D01*
X140846Y315255D01*
X140846Y325059D01*
X121417Y312755D02*
X127165Y318503D01*
X127165Y321377D02*
X130846Y325059D01*
X127165Y318503D02*
X127165Y321377D01*
X97244Y226771D02*
X16141Y226771D01*
X97244Y226771D02*
X99606Y229133D01*
X104921Y229133D01*
X110846Y235059D01*
X16141Y226771D02*
X16929Y225984D01*
X13385Y243700D02*
X13385Y229527D01*
X13385Y243700D02*
X16929Y247244D01*
X61417Y247244D01*
X13385Y229527D02*
X16141Y226771D01*
X110846Y249429D02*
X110846Y235059D01*
X110846Y249429D02*
X111417Y247244D01*
X217322Y37007D02*
X223622Y43307D01*
X236771Y43307D01*
X241732Y48267D01*
X212440Y48267D02*
X231889Y48267D01*
X212440Y48267D02*
X212204Y48031D01*
X229881Y9055D02*
X236574Y15748D01*
X264566Y15748D02*
X236574Y15748D01*
X264566Y15748D02*
X268503Y19685D01*
X268503Y38976D01*
X264173Y43307D02*
X268503Y38976D01*
X264173Y43307D02*
X256535Y43307D01*
X251574Y48267D01*
X266535Y8661D02*
X240275Y8661D01*
X239881Y9055D01*
X272047Y14173D02*
X266535Y8661D01*
X272047Y14173D02*
X272047Y42519D01*
X266299Y48267D01*
X261417Y48267D01*
G54D24*
X261811Y145433D02*
X257874Y145433D01*
X261811Y145433D02*
X268503Y138740D01*
X268503Y102125D01*
X258267Y98188D02*
X264566Y98188D01*
X268503Y102125D02*
X264566Y98188D01*
X257322Y144881D02*
X257874Y145433D01*
X141338Y281496D02*
X141338Y234566D01*
X141338Y281496D02*
X131889Y290944D01*
X78740Y290944D02*
X131889Y290944D01*
X78740Y290944D02*
X70866Y298818D01*
X70866Y325039D01*
X51023Y6692D02*
X65984Y21653D01*
X109055Y21653D01*
X51023Y6692D02*
X43543Y14173D01*
X28503Y14173D01*
X21023Y6692D01*
X250629Y151574D02*
X257322Y144881D01*
X140157Y32677D02*
X190551Y32677D01*
X49606Y127559D02*
X49724Y127440D01*
X180669Y46043D02*
X190669Y46043D01*
X191338Y80708D02*
X240334Y80708D01*
X240669Y81043D01*
X49724Y127440D02*
X49606Y127559D01*
X49724Y127440D02*
X50059Y127106D01*
X49724Y126771D02*
X50059Y127106D01*
X49724Y126771D02*
X49606Y127559D01*
X39330Y93287D02*
X49330Y93287D01*
X49724Y127440D02*
X50059Y127106D01*
X250629Y151574D02*
X201574Y151574D01*
X231889Y28267D02*
X241732Y28267D01*
X251574Y28267D01*
X261417Y28267D01*
X78740Y287007D02*
X78740Y290944D01*
X121259Y32677D02*
X109842Y32677D01*
X123622Y35039D02*
X137795Y35039D01*
X123622Y35039D02*
X121259Y32677D01*
X137795Y35039D02*
X140157Y32677D01*
X27952Y273858D02*
X65590Y273858D01*
X78740Y287007D01*
X109842Y32677D02*
X109055Y33464D01*
X98602Y127559D02*
X49606Y127559D01*
X98602Y127559D02*
X99330Y128287D01*
X49606Y127559D02*
X50059Y127106D01*
X218503Y188188D02*
X237007Y188188D01*
X248188Y199370D01*
X248188Y200787D01*
X193858Y213779D02*
X11417Y213779D01*
X3543Y221653D01*
X3543Y307755D01*
X20846Y325059D01*
X99606Y69291D02*
X19330Y69291D01*
X15354Y69291D02*
X11023Y64960D01*
X11023Y6692D01*
X160669Y46043D02*
X170669Y46043D01*
X172047Y71259D02*
X206850Y71259D01*
X240452Y71259D02*
X240669Y71043D01*
X19330Y93287D02*
X29330Y93287D01*
X193858Y213779D02*
X206850Y200787D01*
X206850Y199842D01*
X218503Y188188D01*
X19330Y93287D02*
X19330Y69291D01*
X15354Y69291D01*
X132283Y26771D02*
X206850Y26771D01*
X206850Y71259D02*
X240452Y71259D01*
X61181Y310236D02*
X27165Y310236D01*
X61181Y310236D02*
X61417Y312755D01*
X27165Y310236D02*
X20846Y316555D01*
X20846Y325059D01*
X129527Y27165D02*
X99606Y27165D01*
X27165Y310236D02*
X27165Y294645D01*
X27952Y293858D01*
X129527Y27165D02*
X130708Y28346D01*
X132283Y26771D02*
X130708Y28346D01*
X195275Y38582D02*
X116929Y38582D01*
X114566Y6299D02*
X61023Y6299D01*
X9507Y118110D02*
X61023Y118110D01*
X151181Y70531D02*
X150669Y71043D01*
X9507Y118110D02*
X9330Y118287D01*
X195275Y38582D02*
X199212Y42519D01*
X231889Y58267D02*
X203937Y58267D01*
X231889Y58267D02*
X241732Y58267D01*
X251574Y58267D01*
X261417Y58267D01*
X199212Y42519D02*
X199212Y53543D01*
X203937Y58267D01*
X201181Y324724D02*
X201181Y303543D01*
X201181Y324724D02*
X200846Y325059D01*
X201181Y303543D02*
X193307Y295669D01*
X86614Y295669D01*
X81417Y300866D01*
X81417Y312755D01*
X114566Y6299D02*
X117716Y9448D01*
X131102Y9055D02*
X130708Y9133D01*
X130708Y9448D02*
X117716Y9448D01*
X130708Y9448D02*
X131102Y9055D01*
X130708Y19133D02*
X132834Y21259D01*
X149881Y21259D01*
X209448Y21259D02*
X226456Y38267D01*
X231889Y38267D01*
X241732Y38267D01*
X251574Y38267D01*
X261417Y38267D01*
X149881Y9055D02*
X149881Y21259D01*
X209448Y21259D01*
G54D27*
X130846Y235059D03*
X140846Y235059D03*
X150846Y235059D03*
X160846Y235059D03*
X170846Y235059D03*
X180846Y235059D03*
X190846Y235059D03*
X200846Y235059D03*
X200846Y325059D03*
X190846Y325059D03*
X180846Y325059D03*
X170846Y325059D03*
X160846Y325059D03*
X150846Y325059D03*
X140846Y325059D03*
X130846Y325059D03*
X120846Y325059D03*
X110846Y325059D03*
X100846Y325059D03*
X90846Y325059D03*
X80846Y325059D03*
X70846Y325059D03*
X60846Y325059D03*
X120846Y235059D03*
X110846Y235059D03*
X100846Y235059D03*
X90846Y235059D03*
X80846Y235059D03*
X70846Y235059D03*
X60846Y235059D03*
X50846Y235059D03*
X40846Y235059D03*
X30846Y235059D03*
X20846Y235059D03*
X20846Y325059D03*
X30846Y325059D03*
X40846Y325059D03*
X50846Y325059D03*
G54D30*
X149881Y9055D03*
G54D31*
X253425Y228622D03*
G54D32*
X201574Y151574D03*
X109055Y33464D03*
X190551Y32677D03*
X49606Y127559D03*
X191338Y80708D03*
X109055Y21653D03*
X207086Y27165D03*
X99606Y69291D03*
X99606Y27165D03*
X172047Y71259D03*
X206850Y71259D03*
X61023Y118110D03*
X117716Y9448D03*
X116929Y38582D03*
X90914Y103064D03*
X175590Y96059D03*
X105118Y224015D03*
X19685Y102755D03*
X91338Y44881D03*
X152362Y44881D03*
X165413Y106121D03*
X84705Y109270D03*
X91338Y218503D03*
X18110Y111023D03*
X84645Y51968D03*
X144094Y51968D03*
X16141Y226771D03*
X217322Y37007D03*
X212204Y48031D03*
G54D33*
X243425Y278622D03*
X243425Y288622D03*
X243425Y298622D03*
X243425Y308622D03*
X243425Y318622D03*
G54D34*
X21023Y6692D03*
X31023Y6692D03*
X41023Y6692D03*
X51023Y6692D03*
X61023Y6692D03*
G54D35*
X257874Y145433D03*
X257874Y155433D03*
X257874Y165433D03*
X258267Y98188D03*
X258267Y108188D03*
X258267Y118188D03*
G54D36*
X251574Y48267D03*
X251574Y38267D03*
X251574Y28267D03*
X261417Y48267D03*
X261417Y38267D03*
X261417Y28267D03*
X241732Y48267D03*
X241732Y38267D03*
X241732Y28267D03*
X231889Y48267D03*
X231889Y38267D03*
X231889Y28267D03*
X130708Y19133D03*
X130708Y9133D03*
G54D37*
X160669Y46043D03*
G54D38*
X159881Y9055D03*
X169881Y9055D03*
X179881Y9055D03*
X189881Y9055D03*
X199881Y9055D03*
X209881Y9055D03*
X219881Y9055D03*
X229881Y9055D03*
X239881Y9055D03*
G54D39*
X243425Y228622D03*
X253425Y238622D03*
X243425Y238622D03*
X253425Y248622D03*
X243425Y248622D03*
X253425Y258622D03*
X243425Y258622D03*
X253425Y268622D03*
X243425Y268622D03*
X253425Y278622D03*
X253425Y288622D03*
X253425Y298622D03*
X253425Y308622D03*
X253425Y318622D03*
G54D40*
X27952Y293858D03*
X27952Y273858D03*
G54D41*
X19330Y93287D03*
G54D42*
X150669Y111043D03*
X150669Y101043D03*
X150669Y91043D03*
G54D43*
X150669Y141043D03*
X150669Y131043D03*
X150669Y121043D03*
X150669Y81043D03*
X150669Y71043D03*
X240669Y141043D03*
X240669Y131043D03*
X240669Y121043D03*
X240669Y111043D03*
X240669Y101043D03*
X240669Y91043D03*
X240669Y81043D03*
X240669Y71043D03*
X9330Y188287D03*
X9330Y178287D03*
X9330Y168287D03*
X9330Y158287D03*
X9330Y148287D03*
X9330Y138287D03*
X9330Y128287D03*
X9330Y118287D03*
X99330Y188287D03*
X99330Y178287D03*
X99330Y168287D03*
X99330Y158287D03*
X99330Y148287D03*
X99330Y138287D03*
X99330Y128287D03*
X99330Y118287D03*
G54D44*
X186850Y200787D03*
X206850Y200787D03*
X228188Y200787D03*
X248188Y200787D03*
G54D45*
X81417Y247244D03*
X71417Y247244D03*
X61417Y247244D03*
X91417Y247244D03*
X101417Y247244D03*
X111417Y247244D03*
X121417Y247244D03*
X131417Y247244D03*
X81417Y312755D03*
X71417Y312755D03*
X61417Y312755D03*
X91417Y312755D03*
X101417Y312755D03*
X111417Y312755D03*
X121417Y312755D03*
X131417Y312755D03*
G54D46*
X170669Y46043D03*
X180669Y46043D03*
X190669Y46043D03*
G54D47*
X29330Y93287D03*
X39330Y93287D03*
X49330Y93287D03*
G54D48*
X142712Y178045D03*
G54D49*
X11023Y6692D03*
G54D50*
X257874Y135433D03*
X258267Y88188D03*
G54D51*
X251574Y58267D03*
X261417Y58267D03*
X241732Y58267D03*
X231889Y58267D03*
X130708Y29133D03*
M02*
